<?xml version="1.0" encoding="UTF-8"?>
<svg id="Layer_1" data-name="Layer 1" xmlns="http://www.w3.org/2000/svg" viewBox="0 0 283.46 283.46">
  <defs>
    <style>
      .cls-1 {
        fill: #231f20;
      }

      .cls-2 {
        fill: #fff;
      }
    </style>
  </defs>
  <path class="cls-2" d="M231.79,234.59v-69.69l-19.26,34.49-.7.62c-1.18,1.06-2.8,2.5-14.39,2.5-.92,0-4.05-.02-5.75-.21l-.33-.03c-1.38-.14-4.98-.5-6.9-4.39l-18.38-32.96v69.67h-39.1V93.39h39.9l31.68,58.56,32.45-58.56h34.41l4.58,4.57v136.63h-38.23ZM147.07,213.84v-1.07h-1.08v1.07h1.08ZM147.07,192.89v-.2h-1.08v.2h1.08ZM147.07,171.94v-.2h-1.08v.2h1.08ZM147.07,151.87v-1.07h-1.08v1.07h1.08ZM147.07,130.92v-1.07h-1.08v1.07h1.08ZM147.07,109.97v-.2h-1.08v.2h1.08Z"/>
  <path class="cls-1" d="M163.57,98.96l34.94,64.6,35.8-64.6h28.82l1.31,1.31v128.74h-27.07v-85.54l-29.24,52.38c-1.39,1.25-13.17,1.21-15.78.91-1.26-.15-2.29-.09-2.92-1.45l-28.91-51.84v85.54h-27.95V98.96h31ZM152.65,104.2h-12.23v11.35h12.23v-11.35ZM152.65,124.28h-12.23v12.22h12.23v-12.22ZM152.65,145.22h-12.23v12.22h12.23v-12.22ZM152.65,166.17h-12.23v11.35h12.23v-11.35ZM152.65,187.12h-12.23v11.35h12.23v-11.35ZM152.65,207.19h-12.23v12.22h12.23v-12.22Z"/>
  <polygon class="cls-2" points="51.88 234.59 51.88 129.85 13.45 129.85 13.45 93.39 129.4 93.39 129.4 129.85 90.1 129.85 90.1 234.59 51.88 234.59"/>
  <polygon class="cls-1" points="123.83 98.96 123.83 124.28 84.53 124.28 84.53 229.02 57.45 229.02 57.45 124.28 19.03 124.28 19.03 98.96 123.83 98.96"/>
  <polygon class="cls-2" points="76.76 81.84 95.23 48.87 130.35 48.87 109.9 81.84 76.76 81.84"/>
  <polygon class="cls-1" points="120.33 54.45 106.8 76.27 86.27 76.27 98.5 54.45 120.33 54.45"/>
  <polygon class="cls-2" points="38.7 81.84 59.16 48.87 92.8 48.87 72.35 81.84 38.7 81.84"/>
  <polygon class="cls-1" points="82.78 54.45 69.24 76.27 48.72 76.27 62.26 54.45 82.78 54.45"/>
  <path class="cls-2" d="M114.15,81.84l19.13-32.97h25.12l1.62,1.57c4.1,3.98,1.15,8.79-5.31,19.34-1.6,2.62-4.01,6.54-4.51,7.79l-.86,4.26h-35.2Z"/>
  <path class="cls-1" d="M156.14,54.45c1.56,1.52-10.68,18.51-11.35,21.82h-20.96l12.66-21.82h19.65Z"/>
  <polygon class="cls-2" points="13.45 81.84 13.45 48.87 54.74 48.87 36.27 81.84 13.45 81.84"/>
  <polygon class="cls-1" points="45.23 54.45 33 76.27 19.03 76.27 19.03 54.45 45.23 54.45"/>
</svg>